<svg width="512" height="512" viewBox="0 0 512 512" xmlns="http://www.w3.org/2000/svg">
  <defs>
    <linearGradient id="dqBlue" x1="0" y1="0" x2="1" y2="1">
      <stop offset="0%" stop-color="#4169E1"/>
      <stop offset="100%" stop-color="#2E4BC6"/>
    </linearGradient>
    <filter id="softShadow" x="-20%" y="-20%" width="140%" height="140%">
      <feDropShadow dx="0" dy="6" stdDeviation="8" flood-color="#1e3a8a" flood-opacity="0.25"/>
    </filter>
  </defs>
  <rect width="512" height="512" fill="none"/>
  <!-- Balanced mark: stylized D with nib inside to echo provided image -->
  <g transform="translate(96,96)" filter="url(#softShadow)">
    <!-- D -->
    <path d="M24 16 V304 H152 C224 304 272 264 272 200 V120 C272 56 224 16 152 16 Z M64 56 H144 C188 56 208 80 208 120 V200 C208 240 188 264 144 264 H64 Z" fill="url(#dqBlue)"/>
    <!-- Nib shape centered where R tail would be in sample -->
    <path d="M176 128 L200 208 L176 192 L152 208 Z" fill="#1e3a8a"/>
    <circle cx="176" cy="176" r="8" fill="#fff" opacity="0.9"/>
    <!-- Right arc like R curve hint -->
    <path d="M224 112 C256 112 272 128 272 160 V200 C272 232 256 248 224 248" fill="none" stroke="url(#dqBlue)" stroke-width="20" stroke-linecap="round"/>
  </g>
</svg>

